<?xml version="1.0" encoding="utf-8"?>
<!-- Generator: Adobe Illustrator 24.1.1, SVG Export Plug-In . SVG Version: 6.00 Build 0)  -->
<svg version="1.1" id="Layer_1" xmlns="http://www.w3.org/2000/svg" xmlns:xlink="http://www.w3.org/1999/xlink" x="0px" y="0px"
	 viewBox="0 0 1507.2 329.3" style="enable-background:new 0 0 1507.2 329.3;" xml:space="preserve">
<style type="text/css">
	.st0{fill:#231F20;}
	.st1{fill:none;}
	.st2{font-family:'Montserrat-Medium';}
	.st3{font-size:144px;}
	.st4{font-family:'Montserrat-Bold';}
</style>
<g id="XMLID_1_">
	<path id="XMLID_9_" class="st0" d="M121.7,110.8v13.7l23.1-18.3C131.5,108.3,121.7,110.8,121.7,110.8z"/>
	<path id="XMLID_11_" class="st0" d="M154.9,103.2l-33.2,26.9v17.6l57.2-45.7C170.9,101.7,162.6,102.3,154.9,103.2z"/>
	<path id="XMLID_2_" class="st0" d="M191.9,117.5l10.7-8.5c-5.5-2.6-12.2-4.1-19.5-4.7l-65.4,50.9V175l19-13.9L191.9,117.5z"/>
	<polygon id="XMLID_6_" class="st0" points="223.7,103.9 226.5,117.1 243.4,103.9 	"/>
	<path id="XMLID_14_" class="st0" d="M208.2,110.1l-84.7,67.5v20.2l93.7-73.2C217.1,124.2,214.6,112.7,208.2,110.1z"/>
	<polygon id="XMLID_12_" class="st0" points="268.3,101.2 253.5,101.2 227.5,121.7 231.9,142.1 271.1,111.3 	"/>
	<path id="XMLID_13_" class="st0" d="M194.5,155.8c0,0,17.3-8.2,20.7-24.5l-93.5,73.2v8c0,0,7.3,0.8,18.1,1.4l71.7-56
		C202.8,155.5,194.5,155.8,194.5,155.8z"/>
	<polygon id="XMLID_3_" class="st0" points="276.8,146.7 284.7,133.8 275.3,141.2 	"/>
	<polygon id="XMLID_7_" class="st0" points="274.1,136.9 269,118.3 229.3,150 233.5,169.2 	"/>
	<polygon id="XMLID_16_" class="st0" points="303.4,114 297,113.8 290.9,123.7 295.4,120.2 	"/>
	<path id="XMLID_4_" class="st0" d="M229.3,192.1c2.1-6.5,2.5-11.8,1.7-16.1l-47.7,37.4C204.9,211.1,224.9,205.4,229.3,192.1z"/>
	<path id="XMLID_17_" class="st0" d="M216.3,159.6l-74.3,58c8.6,0.3,18.7,0.3,28.8-0.3l58.9-45.7
		C227.1,165.6,221.9,161.9,216.3,159.6z"/>
	<polygon id="XMLID_5_" class="st0" points="336.8,117 334.1,111.1 314.8,110.6 284.7,133.8 276.8,146.7 275.3,141.2 238,170.5 
		242.3,190.4 	"/>
	<polygon id="XMLID_10_" class="st0" points="343.2,146.5 343.5,146.1 343.2,146.4 	"/>
	<polygon id="XMLID_20_" class="st0" points="333.5,124.5 326.6,129.8 314.7,139.2 305.3,146.6 290.5,158.1 274,171.1 268,175.8 
		261,181.3 243.3,195.1 246.5,209.9 254.9,209.9 341.4,142.4 	"/>
	<polygon id="XMLID_21_" class="st0" points="363.9,112.6 349.7,135.9 377.3,114.4 	"/>
	<polygon id="XMLID_22_" class="st0" points="368.4,148.8 400.1,124.1 403.9,112.1 389.3,110.1 343.5,146.1 343.2,146.5 
		343.2,146.4 251.9,217.5 280,217.5 360.2,155.3 	"/>
	<polygon id="XMLID_23_" class="st0" points="396.6,132 362.2,159 361.9,159.3 297.3,209.9 324.7,209.9 387.5,160.8 	"/>
	<polygon id="XMLID_15_" class="st0" points="380.3,171.9 327.7,213.9 349.3,213.9 373.1,194.5 	"/>
	<polygon id="XMLID_24_" class="st0" points="368.2,209.9 370.8,201.7 360.3,209.9 	"/>
</g>
<rect x="450.1" y="105" class="st1" width="972.2" height="162.5"/>
<text transform="matrix(1 0 0 1 450.1451 211.8325)"><tspan x="0" y="0" class="st2 st3">BIT</tspan><tspan x="238.2" y="0" class="st4 st3">WARPED</tspan></text>
</svg>
